<?xml version="1.0" encoding="utf-8"?><svg xml:space="preserve" viewBox="0 0 100 100" y="0" x="0" xmlns="http://www.w3.org/2000/svg" id="圖層_1" version="1.1" width="200px" height="200px" xmlns:xlink="http://www.w3.org/1999/xlink" style="width:100%;height:100%;background-size:initial;background-repeat-y:initial;background-repeat-x:initial;background-position-y:initial;background-position-x:initial;background-origin:initial;background-image:initial;background-color:rgb(255, 255, 255);background-clip:initial;background-attachment:initial;animation-play-state:paused" ><g class="ldl-scale" style="transform-origin:50% 50%;transform:rotate(0deg) scale(0.8, 0.8);animation-play-state:paused" ><g style="animation-play-state:paused" ><path fill="#333" d="M86.1 18.4H14.3c-3.7 0-6.8 3-6.8 6.8v56.4c0 3.7 3 6.8 6.8 6.8h71.5c3.7 0 6.8-3 6.8-6.8V25.2c-.1-3.6-2.9-6.6-6.5-6.8z" style="fill:rgb(79, 79, 79);animation-play-state:paused" ></path>
<path d="M86.2 18.4z" fill="#333" style="fill:rgb(79, 79, 79);animation-play-state:paused" ></path></g>
<path fill="#fff" d="M14.3 82.5h71.5c.5 0 1-.4 1-1V42.7H13.3v38.8c0 .6.4 1 1 1z" style="fill:rgb(255, 255, 255);animation-play-state:paused" ></path>
<g style="animation-play-state:paused" ><path fill="#e0e0e0" d="M29.7 37.2c-4.4 0-8-3.6-8-8V17.7c0-4.4 3.6-8 8-8s8 3.6 8 8v11.5c0 4.4-3.6 8-8 8z" style="fill:rgb(224, 224, 224);animation-play-state:paused" ></path>
<path fill="#333" d="M29.7 11.7c3.3 0 6 2.7 6 6v11.5c0 3.3-2.7 6-6 6s-6-2.7-6-6V17.7c0-3.3 2.7-6 6-6m0-4c-5.5 0-10 4.5-10 10v11.5c0 5.5 4.5 10 10 10s10-4.5 10-10V17.7c0-5.5-4.5-10-10-10z" style="fill:rgb(79, 79, 79);animation-play-state:paused" ></path></g>
<g style="animation-play-state:paused" ><path fill="#e0e0e0" d="M69.6 37.2c-4.4 0-8-3.6-8-8V17.7c0-4.4 3.6-8 8-8s8 3.6 8 8v11.5c0 4.4-3.5 8-8 8z" style="fill:rgb(224, 224, 224);animation-play-state:paused" ></path>
<path fill="#333" d="M69.6 11.7c3.3 0 6 2.7 6 6v11.5c0 3.3-2.7 6-6 6s-6-2.7-6-6V17.7c0-3.3 2.7-6 6-6m0-4c-5.5 0-10 4.5-10 10v11.5c0 5.5 4.5 10 10 10s10-4.5 10-10V17.7c0-5.5-4.4-10-10-10z" style="fill:rgb(79, 79, 79);animation-play-state:paused" ></path></g>
<metadata xmlns:d="https://loading.io/stock/" style="animation-play-state:paused" ><d:name style="animation-play-state:paused" >calendar</d:name>


<d:tags style="animation-play-state:paused" >schedule,date,time,plan,agenda,journal,calendar,web application</d:tags>


<d:license style="animation-play-state:paused" >by</d:license>


<d:slug style="animation-play-state:paused" >htk6pe</d:slug></metadata></g><!-- generated by https://loading.io/ --></svg>