<svg width="28" height="29" viewBox="0 0 28 29" fill="none"
    xmlns="http://www.w3.org/2000/svg">
    <path d="M23.2167 15.27C23.0297 15.0571 22.9265 14.7834 22.9265 14.5C22.9265 14.2166 23.0297 13.9429 23.2167 13.73L24.71 12.05C24.8746 11.8665 24.9768 11.6355 25.0019 11.3903C25.0271 11.145 24.9739 10.8981 24.85 10.685L22.5167 6.64834C22.3941 6.43545 22.2074 6.2667 21.9833 6.16614C21.7591 6.06559 21.5089 6.03836 21.2684 6.08834L19.075 6.53168C18.796 6.58934 18.5054 6.54286 18.2582 6.40101C18.0111 6.25916 17.8244 6.03174 17.7334 5.76168L17.0217 3.62668C16.9434 3.39495 16.7943 3.19369 16.5954 3.05133C16.3966 2.90897 16.158 2.83271 15.9134 2.83334H11.2467C10.9923 2.82006 10.7405 2.89042 10.5299 3.03368C10.3192 3.17693 10.1612 3.3852 10.08 3.62668L9.42671 5.76168C9.33571 6.03174 9.14901 6.25916 8.90184 6.40101C8.65467 6.54286 8.36413 6.58934 8.08504 6.53168L5.83338 6.08834C5.60535 6.05612 5.37289 6.0921 5.16528 6.19176C4.95767 6.29141 4.78419 6.45028 4.66671 6.64834L2.33338 10.685C2.2064 10.8958 2.1493 11.1413 2.17025 11.3864C2.19121 11.6316 2.28914 11.8639 2.45004 12.05L3.93171 13.73C4.11875 13.9429 4.2219 14.2166 4.2219 14.5C4.2219 14.7834 4.11875 15.0571 3.93171 15.27L2.45004 16.95C2.28914 17.1362 2.19121 17.3684 2.17025 17.6136C2.1493 17.8587 2.2064 18.1043 2.33338 18.315L4.66671 22.3517C4.78932 22.5646 4.97601 22.7333 5.20017 22.8339C5.42432 22.9344 5.6745 22.9617 5.91504 22.9117L8.10838 22.4683C8.38746 22.4107 8.678 22.4572 8.92517 22.599C9.17234 22.7409 9.35904 22.9683 9.45004 23.2383L10.1617 25.3733C10.2429 25.6148 10.4009 25.8231 10.6115 25.9663C10.8222 26.1096 11.074 26.18 11.3284 26.1667H15.995C16.2396 26.1673 16.4782 26.0911 16.6771 25.9487C16.876 25.8063 17.0251 25.6051 17.1034 25.3733L17.815 23.2383C17.906 22.9683 18.0927 22.7409 18.3399 22.599C18.5871 22.4572 18.8776 22.4107 19.1567 22.4683L21.35 22.9117C21.5906 22.9617 21.8408 22.9344 22.0649 22.8339C22.2891 22.7333 22.4758 22.5646 22.5984 22.3517L24.9317 18.315C25.0556 18.1019 25.1088 17.855 25.0836 17.6098C25.0584 17.3645 24.9563 17.1336 24.7917 16.95L23.2167 15.27ZM21.4784 16.8333L22.4117 17.8833L20.9184 20.4733L19.5417 20.1933C18.7015 20.0216 17.8274 20.1643 17.0854 20.5944C16.3434 21.0246 15.7852 21.7122 15.5167 22.5267L15.0734 23.8333H12.0867L11.6667 22.5033C11.3982 21.6888 10.84 21.0012 10.098 20.5711C9.35604 20.141 8.48197 19.9983 7.64171 20.17L6.26504 20.45L4.74838 17.8717L5.68171 16.8217C6.25566 16.18 6.57296 15.3493 6.57296 14.4883C6.57296 13.6274 6.25566 12.7967 5.68171 12.155L4.74838 11.105L6.24171 8.53834L7.61838 8.81834C8.45863 8.9901 9.33271 8.84737 10.0747 8.41724C10.8167 7.98711 11.3749 7.29953 11.6434 6.48501L12.0867 5.16668H15.0734L15.5167 6.49668C15.7852 7.31119 16.3434 7.99878 17.0854 8.42891C17.8274 8.85904 18.7015 9.00177 19.5417 8.83001L20.9184 8.55001L22.4117 11.14L21.4784 12.19C20.9109 12.8302 20.5975 13.6561 20.5975 14.5117C20.5975 15.3672 20.9109 16.1931 21.4784 16.8333ZM13.58 9.83334C12.6571 9.83334 11.7548 10.107 10.9874 10.6198C10.22 11.1326 9.62181 11.8614 9.2686 12.7142C8.9154 13.5669 8.82298 14.5052 9.00304 15.4104C9.18311 16.3157 9.62757 17.1472 10.2802 17.7998C10.9329 18.4525 11.7644 18.8969 12.6696 19.077C13.5749 19.2571 14.5132 19.1647 15.3659 18.8114C16.2186 18.4582 16.9475 17.8601 17.4602 17.0927C17.973 16.3252 18.2467 15.423 18.2467 14.5C18.2467 13.2623 17.755 12.0753 16.8799 11.2002C16.0047 10.325 14.8177 9.83334 13.58 9.83334ZM13.58 16.8333C13.1186 16.8333 12.6674 16.6965 12.2837 16.4401C11.9 16.1837 11.6009 15.8193 11.4243 15.3929C11.2477 14.9666 11.2015 14.4974 11.2915 14.0448C11.3816 13.5922 11.6038 13.1764 11.9301 12.8501C12.2564 12.5238 12.6722 12.3015 13.1248 12.2115C13.5775 12.1215 14.0466 12.1677 14.473 12.3443C14.8993 12.5209 15.2637 12.82 15.5201 13.2037C15.7765 13.5874 15.9134 14.0385 15.9134 14.5C15.9134 15.1188 15.6675 15.7123 15.23 16.1499C14.7924 16.5875 14.1989 16.8333 13.58 16.8333Z" fill="#71839B"/>
</svg>
